<?xml version="1.0" encoding="UTF-8"?>
<svg version="1.1" xmlns="http://www.w3.org/2000/svg" width="512" height="512">
<path d="M0 0 C1.18859619 0.00418945 2.37719238 0.00837891 3.60180664 0.01269531 C12.34553224 0.1249858 20.31475383 0.87682267 28.75 3.3125 C29.74 3.57933594 30.73 3.84617188 31.75 4.12109375 C45.4410946 8.21749839 57.80926654 15.18506359 68.75 24.3125 C70.16925781 25.48619141 70.16925781 25.48619141 71.6171875 26.68359375 C78.42711805 32.57861673 83.62959504 38.95428842 88.75 46.3125 C92.18325824 44.35931896 95.60637227 42.39767659 99.00390625 40.3828125 C129.1765165 22.6426001 163.64942198 16.65748053 197.875 25.0625 C231.51670433 33.8814414 259.60660325 54.53163427 277.75 84.3125 C278.3080835 85.21621338 278.3080835 85.21621338 278.87744141 86.13818359 C294.73600412 112.28221847 300.2966078 145.46116758 293.75 175.3125 C294.61625 175.58320313 295.4825 175.85390625 296.375 176.1328125 C315.82861739 182.93257228 332.1296638 198.52848655 341.20751953 216.86254883 C342.84050774 220.30865111 344.37601224 223.75439213 345.75 227.3125 C346.03625244 227.99852295 346.32250488 228.6845459 346.61743164 229.39135742 C349.48201303 237.25176874 349.2383788 245.33143187 349.19604492 253.58813477 C349.18755146 256.10972282 349.21634242 258.62902606 349.24804688 261.15039062 C349.28332584 269.97675329 348.73782454 277.35064763 345.51196289 285.6550293 C344.64420775 288.68146786 344.81965454 290.33140327 345.75 293.3125 C346.265625 294.09625 346.78125 294.88 347.3125 295.6875 C349.34824321 299.40494411 349.49903121 301.09068773 348.75 305.3125 C338.66201073 322.58436042 321.24477885 334.37739479 302.4140625 340.375 C292.23486259 343.04159141 282.59719467 343.40932684 272.125 343.3125 C269.45309098 343.31134218 266.78127213 343.31224826 264.109375 343.31640625 C259.92196903 343.32260748 255.73591747 343.31714441 251.54882812 343.26123047 C248.80491766 343.22540353 246.06295289 343.21348522 243.31884766 343.22851562 C240.74555932 343.24253379 238.17181131 343.22323827 235.59912109 343.16601562 C228.93028993 343.22042295 228.93028993 343.22042295 223.20730591 346.29272461 C221.18978772 348.54334251 219.44760669 350.81546586 217.75 353.3125 C217.00492187 354.199375 216.25984375 355.08625 215.4921875 356 C214.87601562 356.763125 214.25984375 357.52625 213.625 358.3125 C212.87734375 359.23289062 212.1296875 360.15328125 211.359375 361.1015625 C210.95009766 361.6059082 210.54082031 362.11025391 210.11914062 362.62988281 C207.38314679 365.99230604 204.62914615 369.33994163 201.875 372.6875 C201.27526367 373.41654541 200.67552734 374.14559082 200.05761719 374.89672852 C195.91852665 379.91853434 191.73023182 384.89553739 187.51220703 389.85107422 C184.20706789 393.74444724 181.01470718 397.71606635 177.84375 401.71875 C175.36188653 404.79329728 172.81141407 407.80420092 170.25 410.8125 C166.43212309 415.29894224 162.7029056 419.83939666 159.0390625 424.453125 C155.9901874 428.26161744 152.90577869 432.04002786 149.8125 435.8125 C149.25135498 436.50053711 148.69020996 437.18857422 148.11206055 437.89746094 C146.95783157 439.30220612 145.78131714 440.68887764 144.58544922 442.05834961 C142.66448087 444.30688116 142.66448087 444.30688116 141.12158203 447.03735352 C138.49632187 450.91597035 136.16785191 453.74386042 131.43948364 454.855896 C125.53075467 455.59358945 119.63492187 455.51835934 113.69238281 455.34155273 C110.49343203 455.24981164 107.30169624 455.23900771 104.1015625 455.24023438 C102.06243753 455.21566745 100.02336139 455.18652959 97.984375 455.15234375 C97.03222107 455.14677963 96.08006714 455.14121552 95.09906006 455.13548279 C90.44024262 454.96878821 88.39899783 454.83766097 84.67285156 451.82250977 C84.03831055 450.99420654 83.40376953 450.16590332 82.75 449.3125 C82.42 448.9825 82.09 448.6525 81.75 448.3125 C80.84545338 439.41178571 83.82542341 431.57617072 86.53515625 423.23828125 C87.03518321 421.66752969 87.53405711 420.09641067 88.03184509 418.52494812 C89.34444923 414.39186203 90.67247006 410.26389257 92.00390625 406.13684082 C93.33149193 402.0127873 94.64469651 397.88416584 95.95898438 393.75585938 C98.2063982 386.70295893 100.46493296 379.65369481 102.72962379 372.60632515 C104.83011242 366.0680787 106.91623225 359.52530631 108.99609375 352.98046875 C109.28412369 352.07436356 109.57215363 351.16825836 109.86891174 350.23469543 C110.49622104 348.26071921 111.1231642 346.28662663 111.75 344.3125 C89.64356175 341.30264536 89.64356175 341.30264536 68.77441406 346.04833984 C64.62712947 350.33462371 62.59112473 355.29803954 60.70996094 360.8828125 C58.52711597 366.40765306 54.72405553 371.08127033 49.75 374.3125 C47.59425354 374.69345093 47.59425354 374.69345093 45.24438477 374.70068359 C44.35989151 374.71014008 43.47539825 374.71959656 42.56410217 374.7293396 C41.61611252 374.72326691 40.66812286 374.71719421 39.69140625 374.7109375 C38.71010239 374.71380768 37.72879852 374.71667786 36.71775818 374.71963501 C34.6441083 374.72167488 32.57043915 374.71615043 30.49682617 374.70361328 C27.32752272 374.68757602 24.15949787 374.70345605 20.99023438 374.72265625 C18.97395552 374.72067347 16.95767747 374.71682907 14.94140625 374.7109375 C13.52245811 374.72004654 13.52245811 374.72004654 12.07484436 374.7293396 C6.01156598 374.66474479 2.54732272 373.82044451 -2.0625 369.6875 C-4.89205734 364.02838532 -3.35301793 358.02336935 -1.45825195 352.30883789 C-0.64728717 350.04647572 0.176739 347.78876564 1.01171875 345.53515625 C1.66705065 343.69140094 2.3223483 341.84763265 2.97565174 340.00315762 C4.57788153 335.49228228 6.20956569 330.992231 7.85864258 326.49829102 C8.78700201 323.96483053 9.69942406 321.42661421 10.59590149 318.88169861 C11.43728806 316.49664444 12.30196656 314.11964076 13.19303894 311.75270081 C15.85910779 304.10825832 15.88993714 299.71332894 12.75 292.3125 C12.13749758 290.5520684 11.53466289 288.78824854 10.94067383 287.02148438 C10.28062446 285.1493285 9.61936377 283.27759935 8.95703125 281.40625 C8.23681171 279.34273341 7.51743595 277.27892216 6.79882812 275.21484375 C5.6806323 272.00644974 4.55804768 268.79996113 3.42114258 265.59814453 C2.31453879 262.47651302 1.22795473 259.34849026 0.14453125 256.21875 C-0.19603806 255.27366577 -0.53660736 254.32858154 -0.88749695 253.3548584 C-2.89892019 247.47601076 -4.7511064 241.5124079 -3.25 235.3125 C-1.41674214 232.3427419 0.59669368 230.77656906 3.75 229.3125 C7.37228179 228.52573977 10.84319185 228.51620553 14.5390625 228.5859375 C15.56051361 228.58494049 16.58196472 228.58394348 17.6343689 228.58291626 C19.78432027 228.58757966 21.93428439 228.6069305 24.08398438 228.64013672 C27.37208634 228.68745807 30.6569549 228.68123222 33.9453125 228.66796875 C36.0390818 228.67911956 38.13283748 228.69333761 40.2265625 228.7109375 C41.20686432 228.70911469 42.18716614 228.70729187 43.19717407 228.70541382 C47.35660063 228.7917919 50.06305771 228.93245126 53.74633789 230.97021484 C56.0624224 233.67772243 57.11267591 236.04653982 58.33203125 239.390625 C63.08325066 250.82817329 63.08325066 250.82817329 71.75 259.3125 C84.06963844 263.38584385 99.12519991 260.83649372 111.75 259.3125 C111.52164459 258.59429077 111.29328918 257.87608154 111.05801392 257.1361084 C110.15549431 254.29735788 109.25306201 251.45857963 108.35070419 248.61977768 C107.93366057 247.3077732 107.51659964 245.99577422 107.09952164 244.68378067 C104.59833907 236.81551924 102.09965478 228.94647539 99.60644531 221.07568359 C98.92040563 218.91023736 98.23434511 216.74479774 97.54826355 214.57936478 C97.09376275 213.14482595 96.63930524 211.71027341 96.18489075 210.27570724 C93.80193008 202.75428789 91.41178167 195.23550797 88.97702026 187.73065186 C88.01844693 184.77496031 87.06829432 181.81660886 86.11981201 178.85766602 C85.51948052 176.99785029 84.90571155 175.14238871 84.29150391 173.28710938 C82.30095234 167.05341903 81.11158078 161.86606872 81.75 155.3125 C83.49195191 152.25332385 85.55227911 149.91136044 88.75 148.3125 C90.10661238 148.20355307 91.46824153 148.15356853 92.82910156 148.13549805 C93.67047668 148.12266281 94.51185181 148.10982758 95.37872314 148.09660339 C96.29015076 148.08921646 97.20157837 148.08182953 98.140625 148.07421875 C99.077995 148.066147 100.01536499 148.05807526 100.98114014 148.04975891 C102.96836495 148.03591314 104.95561359 148.02519319 106.94287109 148.01733398 C109.97409545 148.00014688 113.0042219 147.95626836 116.03515625 147.91210938 C117.96613781 147.90198017 119.89712865 147.89346478 121.828125 147.88671875 C122.73145569 147.86921066 123.63478638 147.85170258 124.56549072 147.83366394 C130.14399662 147.85277472 133.32406842 148.58671823 137.75 152.3125 C139.69921875 154.43359375 139.69921875 154.43359375 141.4375 156.75 C144.6089161 160.86738342 147.87377958 164.86382278 151.25 168.8125 C155.14176829 173.38086683 158.92932266 178.01426795 162.65625 182.71875 C165.13811041 185.79329349 167.68848513 188.80429044 170.25 191.8125 C174.14075616 196.38175314 177.92928921 201.01422572 181.65625 205.71875 C184.13811041 208.79329349 186.68848513 211.80429044 189.25 214.8125 C193.14075616 219.38175314 196.92928921 224.01422572 200.65625 228.71875 C203.1381118 231.79329521 205.68853167 234.80424871 208.25 237.8125 C219.79639534 251.37638394 219.79639534 251.37638394 223.48091125 256.91392517 C225.540308 259.54136937 225.540308 259.54136937 228.54631042 259.92481995 C229.62310562 259.91941696 230.69990082 259.91401398 231.80932617 259.90844727 C233.64855904 259.91854576 233.64855904 259.91854576 235.52494812 259.92884827 C236.17864569 259.92067644 236.83234325 259.91250462 237.50584984 259.90408516 C239.57397 259.87852307 241.64010892 259.88351251 243.70832825 259.89598083 C248.11826998 259.91672205 252.52759907 259.89715123 256.9375 259.875 C300.10163958 259.69383338 300.10163958 259.69383338 315.6875 268.5625 C319.99054107 271.22754117 319.99054107 271.22754117 324.75 272.3125 C328.36905577 255.79621264 326.18005496 238.69815783 318 223.9375 C308.5275592 209.51024401 295.81448303 200.22452939 279.3125 195.3125 C273.95512383 193.5922416 271.41203544 192.35135279 268.75 187.3125 C268.01051928 181.58152446 269.04697487 176.80932898 270.25 171.1875 C275.82265771 144.22155888 269.9839433 115.70156343 255.07421875 92.68359375 C251.63749973 87.60140657 247.84433199 82.87897118 243.75 78.3125 C243.12738281 77.60738281 242.50476563 76.90226562 241.86328125 76.17578125 C223.44702461 56.52405247 196.0403327 46.67902462 169.6875 45.1328125 C145.80839441 44.56123816 121.80626244 51.93137395 102.75 66.3125 C101.95964355 66.90756348 101.95964355 66.90756348 101.15332031 67.51464844 C79.50943272 84.07190132 65.9881292 108.13560681 62.39355469 135.04321289 C61.46118991 141.09490807 59.6412388 145.41007985 54.75 149.3125 C51.93447633 150.38263545 49.74495819 150.71026788 46.75 150.3125 C43.37137713 148.77676233 40.71736694 147.0155283 37.734375 144.84765625 C26.60083009 136.97808224 15.13825898 134.81508582 1.75 136.3125 C-9.72030757 138.561319 -20.04435146 144.47103321 -26.82421875 154.06640625 C-32.37174839 162.80566528 -35.49007967 171.60703037 -35.25 182.0625 C-35.09833131 188.79180047 -35.8314348 192.61752735 -40.4375 197.75 C-44.16909899 199.82311055 -47.13525894 200.02871773 -51.25 199.3125 C-53.98835093 198.41095062 -56.65781656 197.3766681 -59.34765625 196.33984375 C-74.70768181 190.90284951 -90.57106459 193.09375469 -105.25 199.3125 C-120.24400402 206.50711945 -131.11583008 218.97707519 -137.2421875 234.29296875 C-143.06812071 251.74818725 -141.76291972 270.43555536 -133.6875 286.9375 C-124.42923627 302.74884209 -110.58892504 311.86619165 -93.5 317.5625 C-87.72009792 318.89632356 -82.12679062 319.36310115 -76.2109375 319.453125 C-75.13585937 319.47246094 -74.06078125 319.49179687 -72.953125 319.51171875 C-70.72674703 319.54568931 -68.50007311 319.5638111 -66.2734375 319.56640625 C-57.18413724 319.7739744 -57.18413724 319.7739744 -53.5390625 322.734375 C-50.4415087 326.22308747 -49.78894055 328.4178838 -49.83203125 333.140625 C-50.58979122 337.07814409 -53.16140751 339.86854494 -56.25 342.3125 C-75.21804391 348.31100669 -101.57135334 342.14434866 -118.82421875 333.52734375 C-138.29032911 322.09188447 -152.11798247 306.3824798 -160.25 285.3125 C-160.53552734 284.62502686 -160.82105469 283.93755371 -161.11523438 283.22924805 C-163.95761511 275.40172985 -163.77335696 267.36912728 -163.75097656 259.14672852 C-163.75000843 256.6467606 -163.79164152 254.14991426 -163.8359375 251.65039062 C-163.91635429 240.90094792 -162.4241868 232.26126272 -158.25 222.3125 C-157.9307959 221.5393042 -157.6115918 220.7661084 -157.28271484 219.96948242 C-148.18289862 199.49097133 -130.76910402 183.81758728 -110.25 175.3125 C-102.73922433 172.58286953 -95.12137152 170.66289331 -87.25 169.3125 C-88.12011719 167.94931641 -88.12011719 167.94931641 -89.0078125 166.55859375 C-104.19465607 142.31241685 -110.65106941 114.13383282 -105.07177734 85.65039062 C-98.62137107 57.62235495 -82.24799127 32.35439545 -57.93164062 16.66113281 C-40.11081781 5.66824676 -20.9609949 -0.10105265 0 0 Z M-64.76171875 53.1953125 C-80.37369079 73.0747336 -85.67262102 95.95731219 -82.98193359 120.78613281 C-80.29878459 138.29681101 -71.14072769 156.2353333 -57.25 167.3125 C-56.97027344 166.36890625 -56.69054687 165.4253125 -56.40234375 164.453125 C-50.54032244 145.38095 -40.06863254 130.21701648 -22.15234375 120.66015625 C-4.58425487 112.09597466 13.99469258 110.54906193 32.71875 116.2421875 C35.42830093 117.19891038 38.09547754 118.21305226 40.75 119.3125 C41.16765625 118.18328125 41.5853125 117.0540625 42.015625 115.890625 C49.39974807 96.22845185 58.56776912 79.70845759 71.75 63.3125 C67.1321912 49.35588235 52.17553748 38.41319538 39.59399414 31.9777832 C3.42544505 14.53023563 -38.26441934 22.78317103 -64.76171875 53.1953125 Z M108.75 171.3125 C111.19102849 180.69919968 114.08384306 189.93439102 117.00390625 199.1796875 C117.51062197 200.78862515 118.01720632 202.39760417 118.52366638 204.00662231 C119.57878575 207.35706006 120.63539797 210.70702214 121.69311523 214.05664062 C123.04644211 218.34278893 124.39610927 222.63007933 125.7446909 226.9177227 C126.78732413 230.23131631 127.83181556 233.54432188 128.87687492 236.85715103 C129.37539202 238.43817754 129.87335007 240.01938044 130.37072945 241.60076523 C131.06501866 243.80719496 131.76179415 246.01282445 132.45922852 248.21826172 C133.05188255 250.09709549 133.05188255 250.09709549 133.6565094 252.0138855 C134.58543611 254.81607796 135.65359915 257.57149788 136.75 260.3125 C156.22 260.3125 175.69 260.3125 195.75 260.3125 C193.28910081 256.21100135 190.72845828 252.76460436 187.625 249.1875 C186.63469363 248.03186921 185.64512087 246.87560939 184.65625 245.71875 C184.16511719 245.14511719 183.67398438 244.57148438 183.16796875 243.98046875 C178.88368128 238.94082481 174.75016271 233.77313182 170.578125 228.640625 C166.49723571 223.63357643 162.3719631 218.67044562 158.1875 213.75 C154.31887697 209.20094585 150.55222038 204.58743392 146.84375 199.90625 C144.36188597 196.83170203 141.81139453 193.82081703 139.25 190.8125 C127.7018745 177.24031175 127.7018745 177.24031175 123.75 171.3125 C121.12302936 171.09112607 118.74106036 171.03087975 116.125 171.125 C115.41859375 171.13853516 114.7121875 171.15207031 113.984375 171.16601562 C112.23925872 171.2013896 110.49453392 171.25519779 108.75 171.3125 Z M23.75 252.3125 C24.09256836 253.30467529 24.43513672 254.29685059 24.78808594 255.3190918 C26.07997557 259.06264732 27.36899492 262.80718623 28.65722656 266.55200195 C29.21115299 268.16098813 29.76581853 269.76972007 30.32128906 271.37817383 C31.65773945 275.24881399 32.9828964 279.12242727 34.28320312 283.00537109 C35.18031628 285.67925442 36.12842139 288.29993501 37.13867188 290.93603516 C40.12903019 299.15952053 39.6524138 304.15689034 36.75 312.3125 C36.25316284 313.80683232 35.75941149 315.3021927 35.26806641 316.79833984 C33.58235449 321.88301348 31.82577224 326.94180558 30.0625 332 C29.15389868 334.61910759 28.24674077 337.23870466 27.34111023 339.85884094 C26.78111435 341.47769003 26.21917414 343.09586809 25.65510559 344.71330261 C24.3312982 347.94140638 24.3312982 347.94140638 23.75 351.3125 C29.09422803 352.33843085 34.52275018 353.24360959 39.75 351.3125 C44.26658125 347.36496707 46.88464395 341.6918596 49.61425781 336.44140625 C51.11356322 333.63101435 52.85272238 331.03870371 54.6875 328.4375 C55.19152344 327.69757813 55.69554687 326.95765625 56.21484375 326.1953125 C58.01893693 323.98265878 59.24716802 322.74450581 61.75 321.3125 C64.77042408 321.02365353 67.58292834 320.9093658 70.60275269 320.93395996 C71.50692464 320.92942983 72.41109659 320.9248997 73.3426677 320.9202323 C76.37946946 320.9085839 79.4158328 320.91826553 82.45263672 320.92773438 C84.62753077 320.92363015 86.80242263 320.91817016 88.97731018 320.91145325 C93.66614109 320.89971226 98.35485424 320.89724983 103.04369736 320.90180969 C110.46621462 320.90861332 117.88857685 320.89275921 125.31106567 320.87341309 C141.08236595 320.83551361 156.85366358 320.82272898 172.625 320.8125 C189.61706578 320.8014684 206.60907446 320.78596381 223.60109341 320.74178743 C230.96997908 320.72348387 238.3386879 320.71952066 245.70759082 320.72672272 C250.30914559 320.72825169 254.91061312 320.71741499 259.51214409 320.70334435 C261.63483919 320.69936342 263.75755118 320.70042928 265.88023949 320.70711708 C288.12056494 320.77176311 305.52501253 317.59273082 322.75 302.3125 C319.78877868 298.19727332 316.49584766 295.43489996 312.25 292.75 C311.63777588 292.35941406 311.02555176 291.96882813 310.39477539 291.56640625 C304.82263703 288.13606981 299.10341426 285.90322071 292.75 284.3125 C292.05882332 284.13681173 291.36764664 283.96112347 290.65552521 283.78011131 C286.63962517 283.13379777 282.70184892 283.1694094 278.64050293 283.17446899 C277.72095935 283.17164771 276.80141578 283.16882643 275.85400724 283.16591966 C272.77180358 283.15758448 269.68963589 283.15623635 266.60742188 283.15478516 C264.39807535 283.15011628 262.18872978 283.14497259 259.97938538 283.13938904 C255.22128896 283.12811336 250.4631988 283.11967674 245.70509338 283.11326981 C238.18419052 283.10259118 230.66333265 283.08234798 223.14245605 283.06015015 C212.60067197 283.0296222 202.05888658 283.00038919 191.51708984 282.97460938 C190.51396595 282.9721521 190.51396595 282.9721521 189.49057692 282.96964519 C178.64668177 282.94334444 167.80278321 282.92470809 156.95886964 282.90801747 C145.8223781 282.89059972 134.68594631 282.86157034 123.54950571 282.8231281 C117.29795338 282.80203038 111.04649644 282.78659685 104.79490662 282.78432083 C98.91798337 282.78217859 93.041259 282.76635257 87.16439629 282.73993111 C85.00567661 282.73272143 82.84693287 282.73064518 80.68820381 282.73403358 C77.74506456 282.73791592 74.80256438 282.72351374 71.85949707 282.70449829 C71.00200851 282.71002799 70.14451995 282.71555768 69.26104689 282.72125494 C64.58474797 282.66897076 61.57725408 282.295891 57.75 279.3125 C56.37548828 277.76953125 56.37548828 277.76953125 55.3203125 276.125 C54.92062256 275.51350098 54.52093262 274.90200195 54.10913086 274.27197266 C53.70186768 273.62534668 53.29460449 272.9787207 52.875 272.3125 C52.44517822 271.64911621 52.01535645 270.98573242 51.57250977 270.30224609 C50.28704186 268.31263196 49.01672942 266.31408358 47.75 264.3125 C47.0276518 263.17949104 46.30501852 262.04666376 45.58203125 260.9140625 C44.39107294 259.04290739 43.20538138 257.16837899 42.02734375 255.2890625 C40.89941674 253.39188669 40.89941674 253.39188669 39.75 252.3125 C37.05345146 252.23930379 34.38308542 252.22007463 31.6875 252.25 C30.54958008 252.25676758 30.54958008 252.25676758 29.38867188 252.26367188 C27.50908129 252.2754932 25.62953101 252.29342922 23.75 252.3125 Z M136.75 343.3125 C134.86578591 348.33707092 133.06886753 353.26807377 131.4375 358.36425781 C131.22730225 359.01914688 131.01710449 359.67403595 130.80053711 360.34877014 C130.11490848 362.48705092 129.43227365 364.62627157 128.75 366.765625 C128.26829676 368.2724622 127.78652467 369.7792774 127.3046875 371.28607178 C126.29805137 374.4358662 125.29305021 377.58617687 124.2890625 380.73681641 C123.01212965 384.74315267 121.72991651 388.74777667 120.44628906 392.7519722 C119.45016309 395.86211653 118.45752565 398.97336639 117.46582031 402.08492279 C116.99503322 403.56025204 116.52306139 405.03520384 116.04980469 406.50974274 C113.31284645 415.04300662 110.78412234 423.57833217 108.75 432.3125 C117.49440333 433.52807048 117.49440333 433.52807048 125.40234375 430.4375 C127.71517059 427.8360779 129.74611384 425.1578618 131.75 422.3125 C133.0328034 420.70123686 134.32438709 419.0969219 135.625 417.5 C136.59566406 416.26830078 136.59566406 416.26830078 137.5859375 415.01171875 C140.08436285 411.89545176 142.65946296 408.85219917 145.25 405.8125 C148.47651468 402.02368132 151.65927713 398.21390428 154.75 394.3125 C158.29855146 389.83318094 161.97936876 385.47909964 165.68359375 381.12890625 C169.0894682 377.11922026 172.38623938 373.03470283 175.65234375 368.91015625 C178.15438354 365.81172709 180.72912322 362.7806258 183.3125 359.75 C191.17326495 352.06811758 191.17326495 352.06811758 195.75 343.3125 C176.28 343.3125 156.81 343.3125 136.75 343.3125 Z " fill="#FFFEF7" transform="translate(163.25,57.6875)"/>
<path d="M0 0 C21.06231395 12.6496696 35.43326549 33.05570351 41.828125 56.60546875 C43.64500931 64.74237536 46.12236558 76.29287887 42.5078125 84.12890625 C40.77923583 86.2184504 38.97852939 87.64745405 36.5546875 88.859375 C31.30189412 89.20382047 27.72834126 89.43679251 23.5546875 85.859375 C20.75682512 81.23320652 20.02588971 77.02718817 19.6171875 71.734375 C18.03817191 55.85877449 11.74808118 41.41756196 0.5546875 29.859375 C-2.98296427 26.9910087 -6.68916348 24.43027578 -10.4453125 21.859375 C-17.19011534 16.68221189 -17.19011534 16.68221189 -17.71875 12.90625 C-17.90685523 8.65217782 -17.88101337 5.75955146 -15.1328125 2.359375 C-10.57009087 -1.88501722 -5.58480958 -2.60505495 0 0 Z " fill="#FFFEF7" transform="translate(375.4453125,131.140625)"/>
<path d="M0 0 C7.19274758 4.0659464 13.0262342 10.65933254 18.8125 16.4375 C19.75287109 17.35337891 20.69324219 18.26925781 21.66210938 19.21289062 C31.93791655 29.44462715 31.93791655 29.44462715 32.03125 36.29296875 C30.72334853 40.95717621 29.39808263 43.50108941 25 46 C20.59578956 47.43615558 17.99147888 46.88695954 13.81066895 45.00115967 C10.82774957 43.35183632 8.52378298 41.05521942 6.171875 38.6328125 C5.39834686 37.8579097 5.39834686 37.8579097 4.60919189 37.06735229 C3.52895316 35.9811111 2.45353857 34.89005275 1.3828125 33.79443359 C-0.24902846 32.12599333 -1.89639793 30.4742052 -3.546875 28.82421875 C-4.59990751 27.76135623 -5.65202302 26.69758423 -6.703125 25.6328125 C-7.4344162 24.89818283 -7.4344162 24.89818283 -8.18048096 24.14871216 C-11.9424615 20.28185045 -14.66525762 17.00845429 -15.5625 11.625 C-14.81157392 6.7856986 -12.55075928 4.25639582 -9 1 C-5.78509882 -0.60745059 -3.5698929 -0.40305242 0 0 Z " fill="#FFFEF7" transform="translate(46,32)"/>
<path d="M0 0 C3.91423452 2.91713478 5.78249738 5.76023507 6.625 10.5625 C5.13477441 18.75874072 -2.03151529 24.46927287 -7.68896484 30.16943359 C-9.24632415 31.74627816 -10.78103328 33.34318463 -12.31640625 34.94140625 C-21.60496803 44.42791562 -21.60496803 44.42791562 -29 45 C-33.07447005 44.24195906 -35.52787475 42.06594442 -38.03515625 38.765625 C-39.40578146 36.25743635 -39.80402874 33.88255763 -39.6015625 31.04370117 C-38.87296626 28.56842554 -37.86264028 27.32941353 -36.125 25.42578125 C-35.49174805 24.73194336 -34.85849609 24.03810547 -34.20605469 23.32324219 C-29.94916184 18.84021957 -25.61981763 14.43534801 -21.25 10.0625 C-20.29547286 9.09580191 -19.34104517 8.12900561 -18.38671875 7.16210938 C-17.48050781 6.25396484 -16.57429688 5.34582031 -15.640625 4.41015625 C-14.82110352 3.58652588 -14.00158203 2.76289551 -13.15722656 1.91430664 C-9.19430625 -1.60235907 -4.88015454 -1.63590868 0 0 Z " fill="#FFFEF7" transform="translate(289,34)"/>
<path d="M0 0 C3.0717718 1.71077974 5.40485654 3.80971307 7 7 C7.32295365 10.90978317 7.32448928 14.82853103 7.375 18.75 C7.41238281 19.83539062 7.44976562 20.92078125 7.48828125 22.0390625 C7.5872128 31.03084095 7.5872128 31.03084095 4.6015625 34.703125 C0.96193769 37.91648744 -1.08610829 38.29939115 -5.96875 38.2109375 C-9.01615702 37.894476 -10.68244699 36.98647401 -13 35 C-16.52177583 29.61476026 -16.4851983 24.71812418 -16.4375 18.5 C-16.45748047 17.57574219 -16.47746094 16.65148437 -16.49804688 15.69921875 C-16.49394857 9.96979119 -15.92159284 6.48182039 -12 2 C-7.97818385 -0.68121076 -4.72763609 -0.81344335 0 0 Z " fill="#FFFEF7" transform="translate(168,0)"/>
<path d="M0 0 C0.99 -0.02900391 1.98 -0.05800781 3 -0.08789062 C9.0938422 -0.14084514 12.61583157 0.24050938 17.25 4.3125 C19.83644464 7.7219043 19.61503115 11.1511449 19.25 15.3125 C17.41941738 19.55174397 15.43682741 21.43528267 11.25 23.3125 C7.43325883 23.80693374 3.65703288 23.82214146 -0.1875 23.8125 C-1.21166016 23.84085938 -2.23582031 23.86921875 -3.29101562 23.8984375 C-11.69993734 23.92020817 -11.69993734 23.92020817 -15.4296875 21.19140625 C-18.19394121 17.76168406 -18.53353756 16.11212693 -18.4375 11.75 C-18.44136719 10.63496094 -18.44523437 9.51992187 -18.44921875 8.37109375 C-17.55292436 4.45043172 -16.07172827 3.4482557 -12.75 1.3125 C-8.90831726 -0.60834137 -4.22623811 0.0406369 0 0 Z " fill="#FFFEF7" transform="translate(17.75,155.6875)"/>
<path d="M0 0 C2.3992664 2.46781687 3.4093099 3.90378258 4.1875 7.25 C4.10657805 11.78162924 3.69040384 13.67166058 0.6875 17.125 C-0.1375 17.82625 -0.9625 18.5275 -1.8125 19.25 C-2.1425 19.58 -2.4725 19.91 -2.8125 20.25 C-7.90251366 20.90981659 -11.62123649 21.14344763 -15.8125 18 C-16.4725 17.0925 -17.1325 16.185 -17.8125 15.25 C-18.26625 14.63125 -18.72 14.0125 -19.1875 13.375 C-20.16736729 10.0434512 -19.63355642 7.59287257 -18.8125 4.25 C-16.97387708 1.29507031 -15.48501431 -0.35012663 -12.5 -2.125 C-7.72383764 -3.23573543 -4.14832453 -2.58117971 0 0 Z " fill="#FFFEF7" transform="translate(337.8125,121.75)"/>
<path d="M0 0 C3.0717718 1.71077974 5.40485654 3.80971307 7 7 C7.5942562 12.00873085 7.5856391 14.88510818 4.4375 18.9375 C2.04096333 21.40170359 0.89915367 22.03241489 -2.5 23.125 C-6.60081584 22.97854229 -8.62295475 22.32640895 -12 20 C-14.55669154 16.97233896 -15.8474933 14.91504018 -16.5 11 C-15.86244485 7.17466909 -14.39968871 5.01675153 -12 2 C-7.97818385 -0.68121076 -4.72763609 -0.81344335 0 0 Z " fill="#FFFEF7" transform="translate(146,378)"/>
</svg>
